<?xml version="1.0" encoding="UTF-8"?>
<svg width="51px" height="55px" viewBox="0 0 51 55" version="1.1" xmlns="http://www.w3.org/2000/svg" xmlns:xlink="http://www.w3.org/1999/xlink">
  <!-- Generator: Sketch 59.1 (86144) - https://sketch.com -->
  <title>Libraries Logos / Scalars Copy</title>
  <desc>Created with Sketch.</desc>
  <g id="Libraries-Logos-/-Scalars-Copy" stroke="none" stroke-width="1" fill="none" fill-rule="evenodd">
    <path d="M30.1318074,50.4269111 C30.1318074,50.6390963 30.1110296,50.8462444 30.0789185,51.0496148 C30.0751407,51.0754296 30.0719926,51.1006148 30.0675852,51.1258 C29.7351407,53.0354667 28.0697704,54.4924296 26.0669185,54.4924296 C24.2806593,54.4924296 22.7638815,53.3326519 22.2192519,51.7283556 L5.30551111,41.9640593 C3.62817778,40.9956889 2.59558519,39.2056519 2.59558519,37.2701704 L2.59558519,20.8236148 C3.22206667,21.0358 3.8901037,21.1560593 4.58836296,21.1560593 C5.21484444,21.1560593 5.81928889,21.0609852 6.38973333,20.8884667 L6.38973333,37.2701704 C6.38973333,37.8488 6.70077037,38.387763 7.20321481,38.6773926 L22.9811037,47.7868741 C23.7272148,46.9160963 24.8322148,46.3613926 26.0669185,46.3613926 C27.4099185,46.3613926 28.5986593,47.0180963 29.3397333,48.0248741 C29.3529556,48.0431333 29.3668074,48.060763 29.3800296,48.0790222 C29.4316593,48.1526889 29.4807704,48.2276148 29.5279926,48.3050593 C29.5462519,48.3346519 29.5645111,48.3636148 29.5821407,48.393837 C29.6236963,48.4649852 29.6621037,48.5380222 29.6992519,48.6116889 C29.7194,48.6513556 29.7382889,48.6910222 29.7565481,48.7313185 C29.7886593,48.7999481 29.8182519,48.8692074 29.8465852,48.9397259 C29.8667333,48.9900963 29.884363,49.0404667 29.9026222,49.0914667 C29.9252889,49.1556889 29.9473259,49.2205407 29.9662148,49.2860222 C29.9851037,49.3489852 29.9989556,49.4119481 30.0146963,49.4742815 C30.0291778,49.5334667 30.0442889,49.5920222 30.0556222,49.651837 C30.071363,49.7305407 30.081437,49.8098741 30.0927704,49.889837 C30.098437,49.9383185 30.1078815,49.9842815 30.1122889,50.0321333 C30.1242519,50.1624667 30.1318074,50.2934296 30.1318074,50.4269111 L30.1318074,50.4269111 Z M50.9328815,14.9227259 C50.9328815,16.1423185 50.3914,17.2353556 49.5376222,17.980837 L49.5376222,37.2701704 C49.5376222,39.2056519 48.5056593,40.9956889 46.8276963,41.9640593 L32.2964741,50.3532444 C32.2801037,48.9806519 31.8160667,47.7169852 31.0466593,46.6932074 L44.9306222,38.6773926 C45.432437,38.387763 45.7434741,37.8488 45.7434741,37.2701704 L45.7434741,18.8264296 C44.0478815,18.337837 42.8024741,16.7744667 42.8024741,14.9227259 C42.8024741,14.0210963 43.1015481,13.1899852 43.6002148,12.5156519 C43.6071407,12.5049481 43.6153259,12.4942444 43.6235111,12.4835407 C43.7173259,12.3588741 43.8180667,12.2386148 43.9257333,12.1252815 L43.9402148,12.1095407 C44.1631037,11.8772074 44.412437,11.6732074 44.684437,11.4988 C44.7127704,11.4805407 44.742363,11.4641704 44.7713259,11.4459111 C44.8789926,11.3816889 44.9891778,11.3206148 45.1025111,11.265837 C45.1358815,11.2500963 45.1692519,11.2330963 45.2032519,11.2179852 C45.3449185,11.153763 45.4909926,11.0945778 45.6414741,11.0479852 C45.6421037,11.0479852 45.6421037,11.0479852 45.6421037,11.0473556 C46.0293259,10.9245778 46.4404741,10.8572074 46.8679926,10.8572074 C49.1101037,10.8572074 50.9328815,12.6806148 50.9328815,14.9227259 L50.9328815,14.9227259 Z M2.59558519,18.4625037 C1.36025185,17.7642444 0.522844444,16.4401333 0.522844444,14.9227259 C0.522844444,12.6806148 2.34625185,10.8572074 4.58836296,10.8572074 C5.16951111,10.8572074 5.72106667,10.9825037 6.22162222,11.2028741 L23.356363,1.31013333 C24.1944,0.825948148 25.1312889,0.58417037 26.0662889,0.58417037 C27.0025481,0.58417037 27.9388074,0.825948148 28.7768444,1.31013333 L43.3936963,9.74968889 C42.3182889,10.4750222 41.4852889,11.5290222 41.0281778,12.7637259 L26.8797704,4.59617037 C26.6329556,4.45324444 26.3515111,4.37831852 26.0662889,4.37831852 C25.7816963,4.37831852 25.5008815,4.45324444 25.253437,4.59617037 L8.5884,14.2181704 C8.6286963,14.4473556 8.65325185,14.6815778 8.65325185,14.9227259 C8.65325185,16.671837 7.5406963,18.1621704 5.98802963,18.7345037 C5.97606667,18.7389111 5.96347407,18.7439481 5.95214074,18.7477259 C5.8281037,18.7911704 5.70406667,18.8295778 5.57625185,18.8616889 C5.55043704,18.8679852 5.52525185,18.8755407 5.49943704,18.8805778 C5.38232593,18.9076519 5.2626963,18.9290593 5.14243704,18.9460593 C5.1096963,18.9504667 5.07758519,18.956763 5.04421481,18.9605407 C4.89436296,18.9775407 4.74262222,18.9882444 4.58836296,18.9882444 C4.42277037,18.9882444 4.2596963,18.9750222 4.09851111,18.9555037 C4.0556963,18.9504667 4.01351111,18.9429111 3.97006667,18.9359852 C3.84665926,18.9170963 3.72577037,18.8931704 3.60551111,18.8629481 C3.56899259,18.8535037 3.53184444,18.8453185 3.4946963,18.8346148 C3.17799259,18.7452074 2.8764,18.6211704 2.59558519,18.4625037 L2.59558519,18.4625037 Z" id="Fill-2" fill="#ff3289"></path>
    <path d="M23.8662081,37.6637919 L14.8861541,32.897927 L23.8662081,17.7005757 L23.8662081,37.6637919 Z M26.4618568,17.7005757 L33.8153432,30.1475757 L26.4618568,26.1953595 L26.4618568,17.7005757 Z M26.3144514,39.8661162 L26.3144514,28.8960892 L36.5233703,34.382927 C36.9962351,34.6354135 37.6179649,34.5354405 37.9864784,34.1523324 C38.3652081,33.7575486 38.4359919,33.1526027 38.1572351,32.6804676 L26.2911,12.5975757 C26.0612351,12.2079 25.6321541,11.9802243 25.1804514,12.0013865 C25.1592892,12.0006568 25.1388568,11.999927 25.1184243,11.999927 C24.6557757,11.999927 24.2566135,12.2254135 24.0362351,12.5983054 L12.1701,32.6811973 C11.8285865,33.2584135 12.0183162,34.0085757 12.5933432,34.3530081 L24.4485324,40.9089 C24.841127,41.1453324 25.3169108,41.1446027 25.6934514,40.9322514 C26.0765595,40.7155216 26.3144514,40.306873 26.3144514,39.8661162 L26.3144514,39.8661162 Z" id="Fill-1" fill="#ff3289"></path>
  </g>
</svg>
